<?xml version="1.0" encoding="UTF-8" standalone="no"?>
<!-- Created with Inkscape (http://www.inkscape.org/) -->

<svg
   width="800mm"
   height="800mm"
   viewBox="0 0 800 800"
   version="1.1"
   id="svg1"
   inkscape:version="1.3.2 (091e20e, 2023-11-25, custom)"
   sodipodi:docname="Logo-3.svg"
   xmlns:inkscape="http://www.inkscape.org/namespaces/inkscape"
   xmlns:sodipodi="http://sodipodi.sourceforge.net/DTD/sodipodi-0.dtd"
   xmlns:xlink="http://www.w3.org/1999/xlink"
   xmlns="http://www.w3.org/2000/svg"
   xmlns:svg="http://www.w3.org/2000/svg">
  <sodipodi:namedview
     id="namedview1"
     pagecolor="#505050"
     bordercolor="#ffffff"
     borderopacity="1"
     inkscape:showpageshadow="0"
     inkscape:pageopacity="0"
     inkscape:pagecheckerboard="1"
     inkscape:deskcolor="#505050"
     inkscape:document-units="mm"
     inkscape:zoom="1.4142136"
     inkscape:cx="1558.8169"
     inkscape:cy="1436.4874"
     inkscape:window-width="1920"
     inkscape:window-height="1017"
     inkscape:window-x="-8"
     inkscape:window-y="131"
     inkscape:window-maximized="1"
     inkscape:current-layer="text23" />
  <defs
     id="defs1">
    <linearGradient
       id="swatch29"
       inkscape:swatch="solid">
      <stop
         style="stop-color:#000000;stop-opacity:1;"
         offset="0"
         id="stop29" />
    </linearGradient>
    <rect
       x="1511"
       y="1024"
       width="198"
       height="102"
       id="rect20" />
  </defs>
  <g
     inkscape:label="Lag 1"
     inkscape:groupmode="layer"
     id="layer1">
    <path
       id="path12"
       style="opacity:1;fill:#67350f;fill-opacity:1;stroke:#5e8ad7;stroke-width:3.25698;stroke-linecap:round;stroke-dasharray:none;stroke-opacity:1"
       d="m 480.28249,360.44698 35.14008,-0.0729 -7.42865,14.29437 7.42865,12.35055 -50.53045,0.29142 m 16.46894,-19.58959 c 10e-6,16.26214 -28.66606,29.44521 -64.02745,29.44521 -35.36139,0 -64.02747,-13.18307 -64.02746,-29.44521 0,-16.26214 28.66607,-29.4452 64.02746,-29.4452 35.36138,0 64.02745,13.18307 64.02745,29.4452 z m -114.21283,19.8472 -49.17772,-0.54899 9.07222,-13.45428 -9.07222,-13.19064 v 0 l 35.18226,0.10303 m 10.70977,31.55234 c -3.19592,-1.46908 -5.1946,-2.50176 -7.7623,-4.21173 m -23.24251,-27.4064 c 7.63649,-18.52462 42.84028,-31.9334 83.83881,-31.9334 40.9854,0 76.1818,13.4004 83.8323,31.91764 m -9.58776,26.66945 c -15.15011,12.29776 -43.51008,19.89866 -74.24454,19.89866 -30.59696,0 -58.85206,-7.53362 -74.05422,-19.74498 m 1.0043,-26.75667 c 0.35048,-0.74597 1.71049,-3.08914 2.16817,-3.82273 m 140.17147,-0.43609 c 0.45223,0.72495 3.40072,3.49643 3.74827,4.23349 m -12.78828,27.31103 c -2.65176,1.7972 -4.07533,2.74623 -7.41555,4.28165"
       sodipodi:nodetypes="cccccssssscccccccccsccsccccccc" />
    <ellipse
       style="fill:none;stroke-width:0.182772"
       id="path4"
       cx="-367.72083"
       cy="-416.69653"
       transform="matrix(0,-1,-1,0,0,0)"
       rx="36.280975"
       ry="79.314697" />
    <path
       id="path1"
       style="fill:none;stroke-width:0.177399"
       d="m 416.69653,398.25587 a 66.75336,30.535033 0 0 1 -66.75334,-30.53504 66.75336,30.535033 0 0 1 66.75334,-30.53503 66.75336,30.535033 0 0 1 66.75336,30.53503 66.75336,30.535033 0 0 1 -66.75336,30.53504 z" />
    <text
       xml:space="preserve"
       style="font-size:18.4132px;fill:#000000;stroke-width:0.431559"
       x="247.8537"
       y="495.77921"
       id="text3"><tspan
         sodipodi:role="line"
         id="tspan3"
         style="font-style:normal;font-variant:normal;font-weight:normal;font-stretch:normal;font-size:18.4132px;font-family:'Eras Bold ITC';-inkscape-font-specification:'Eras Bold ITC';text-align:center;text-anchor:middle;stroke-width:0.431559"
         x="247.8537"
         y="495.77921" /></text>
    <path
       style="opacity:0.75;fill:none;stroke:#000000;stroke-width:3.25698;stroke-linecap:round;stroke-dasharray:none;stroke-opacity:0"
       d="m 367.14823,387.56803 -51.08892,-0.54899 10.60577,-13.86456 -10.60577,-12.78036 v 0 l 37.09346,0.10303"
       id="path14" />
    <text
       xml:space="preserve"
       style="font-size:19.7556px;letter-spacing:2.64583px;fill:#ffffff;fill-opacity:1;stroke-width:0.391;stroke-dasharray:none"
       id="text19"
       transform="translate(-3.96875,-41.275)"><textPath
         xlink:href="#path1"
         startOffset="50%"
         id="textPath19"
         style="font-size:19.7556px;letter-spacing:2.64583px;fill:#ffffff;fill-opacity:1;stroke-width:0.391;stroke-dasharray:none" /></text>
    <text
       xml:space="preserve"
       transform="scale(0.26458333)"
       id="text20"
       style="fill:#ffffff;font-size:74.66666667px;-inkscape-font-specification:'Eras Bold ITC';font-family:'Eras Bold ITC';font-weight:normal;font-style:normal;font-stretch:normal;font-variant:normal;text-align:center;letter-spacing:10px;stroke:#00000f;stroke-width:1.47779528;stroke-dasharray:none;stroke-opacity:1;opacity:1;stroke-linecap:round;fill-opacity:1;white-space:pre;shape-inside:url(#rect20)" />
    <g
       id="text23"
       style="font-size:8.71383px;font-family:'Eras Bold ITC';-inkscape-font-specification:'Eras Bold ITC';text-align:center;letter-spacing:0.46681px;text-anchor:middle;white-space:pre;inline-size:82.6419;opacity:1;fill:#d2d2d2;stroke:#2c1f1f;stroke-width:0.172463;stroke-linecap:round;stroke-opacity:1;fill-opacity:1"
       transform="matrix(1.2182791,0,0,0.82082997,1.5914982,4.3502302)"
       aria-label="Nybygg-påbygg&#10;Siden">
      <ellipse
         style="opacity:1;fill:#e4af9f;fill-opacity:1;stroke:#ac111b;stroke-width:0.604144;stroke-linecap:round;stroke-dasharray:none;stroke-opacity:1"
         id="path26"
         cx="340.4592"
         cy="444.05676"
         rx="51.897476"
         ry="35.140438" />
      <path
         id="path25"
         d="m 325.00706,453.00083 q -0.0553,-0.90627 -0.12764,-1.45089 0.47653,0.21274 0.8467,0.29784 0.37442,0.0808 0.65524,0.0808 0.37017,0 0.58716,-0.10637 0.22125,-0.11062 0.22125,-0.32336 0,-0.0723 -0.0213,-0.13616 -0.0213,-0.0681 -0.0808,-0.14891 -0.0596,-0.0851 -0.1702,-0.18296 l -0.7999,-0.69779 q -0.28082,-0.23827 -0.39144,-0.34464 -0.2255,-0.21699 -0.35315,-0.4042 -0.12339,-0.18721 -0.18295,-0.37868 -0.0553,-0.19572 -0.0553,-0.41272 0,-0.25954 0.0894,-0.50632 0.0936,-0.25103 0.27657,-0.46803 0.18295,-0.21699 0.48504,-0.37442 0.30209,-0.15743 0.64673,-0.21274 0.34464,-0.0596 0.71055,-0.0596 0.71907,0 1.56577,0.16593 0.0128,0.29358 0.0298,0.54036 0.017,0.24253 0.0808,0.85522 -0.39145,-0.15743 -0.71481,-0.217 -0.32337,-0.0638 -0.55738,-0.0638 -0.33187,0 -0.55312,0.12339 -0.217,0.12339 -0.217,0.30634 0,0.0851 0.034,0.16594 0.034,0.0808 0.12764,0.19147 0.0936,0.10637 0.24678,0.23827 0.15317,0.12764 0.48079,0.38293 l 0.30635,0.24252 q 0.13615,0.11063 0.29358,0.26805 0.15743,0.15743 0.27231,0.31061 0.11488,0.15317 0.17445,0.28081 0.0638,0.12765 0.0936,0.25954 0.0298,0.12765 0.0298,0.27657 0,0.38293 -0.18295,0.73182 -0.18296,0.34464 -0.51909,0.57015 -0.33613,0.22124 -0.74033,0.3106 -0.39995,0.0894 -0.84671,0.0894 -0.68928,0 -1.74021,-0.19998 z m 5.52577,-4.79516 q 0.0255,-0.50632 0.0255,-0.7999 0,-0.0851 -0.004,-0.22976 0.51483,0.009 0.86372,0.009 0.4808,0 0.84245,-0.009 -0.0128,0.1319 -0.017,0.22125 l -0.0255,0.52759 q -0.009,0.11914 -0.009,0.28082 -0.42123,-0.009 -0.80842,-0.009 -0.39995,0 -0.86797,0.009 z m -0.26806,4.88451 q 0.0596,-0.51908 0.0893,-0.85521 0.0298,-0.33613 0.0553,-0.85947 0.0298,-0.52334 0.0511,-1.15731 0.0213,-0.63396 0.034,-1.47216 0.55313,0.009 0.885,0.009 0.30209,0 0.86798,-0.009 -0.0723,0.80416 -0.10637,1.41259 -0.0298,0.60844 -0.0383,1.28921 -0.017,1.20836 -0.017,1.64235 -0.50632,-0.009 -0.87224,-0.009 -0.36165,0 -0.94882,0.009 z m 8.00206,0 q -0.45526,-0.009 -0.75735,-0.009 -0.34038,0 -0.82543,0.009 l 0.0255,-0.54036 q -0.16594,0.16168 -0.28933,0.2638 -0.12339,0.0979 -0.31911,0.19147 -0.19147,0.0936 -0.41697,0.14466 -0.22125,0.0511 -0.45952,0.0511 -0.40846,0 -0.76586,-0.14892 -0.35315,-0.14892 -0.60418,-0.42123 -0.25104,-0.27656 -0.37443,-0.65098 -0.12339,-0.37868 -0.12339,-0.78288 0,-0.5744 0.22551,-1.12327 0.2255,-0.54887 0.58716,-0.86373 0.36591,-0.31485 0.82118,-0.44249 0.45952,-0.1319 0.99137,-0.1319 0.35314,0 0.82543,0.0638 0.034,-0.50632 0.0468,-1.41685 0.52334,0.009 0.85521,0.009 0.42974,0 0.86798,-0.009 -0.12339,1.26368 -0.21699,3.08473 -0.0936,1.82105 -0.0936,2.72307 z m -1.51896,-3.2847 q -0.2255,-0.0511 -0.42548,-0.0511 -0.41272,0 -0.70204,0.16168 -0.28933,0.15743 -0.44676,0.49781 -0.15317,0.33613 -0.15317,0.66375 0,0.24678 0.0851,0.44676 0.0894,0.19572 0.26805,0.3106 0.18296,0.11488 0.40421,0.11488 0.23401,0 0.42548,-0.1319 0.19572,-0.1319 0.31485,-0.38719 0.12339,-0.25529 0.16594,-0.60418 0.0468,-0.35315 0.0638,-1.02115 z m 7.15536,1.99975 q -0.0553,0.25529 -0.21274,1.23389 -0.49356,0.0979 -0.82969,0.12765 -0.33613,0.034 -0.68077,0.034 -0.50632,0 -0.9318,-0.0723 -0.42548,-0.0681 -0.73608,-0.24677 -0.30635,-0.17871 -0.51483,-0.4425 -0.20849,-0.26806 -0.31911,-0.63397 -0.10637,-0.36591 -0.10637,-0.7531 0,-0.54461 0.21699,-1.0637 0.217,-0.52334 0.55738,-0.81692 0.34464,-0.29358 0.7914,-0.41697 0.44675,-0.12339 0.91478,-0.12339 0.48505,0 0.92329,0.11488 0.4425,0.11063 0.74884,0.39144 0.30635,0.28082 0.43399,0.63397 0.1319,0.35315 0.1319,0.76161 0,0.24252 -0.0553,0.54036 l -2.98261,0.004 q -0.004,0.0681 -0.004,0.12339 0,0.45952 0.32762,0.67651 0.32762,0.217 0.7999,0.217 0.28082,0 0.63822,-0.0638 0.36166,-0.0681 0.88926,-0.22551 z m -2.61671,-1.37855 h 1.40409 q 0.004,-0.0723 0.004,-0.12339 0,-0.22125 -0.0808,-0.37868 -0.0766,-0.15743 -0.2255,-0.22976 -0.14467,-0.0723 -0.32762,-0.0723 -0.12765,0 -0.24678,0.0425 -0.11914,0.0383 -0.217,0.11913 -0.0936,0.0766 -0.15742,0.1787 -0.0638,0.10212 -0.0936,0.19998 -0.0298,0.0936 -0.0596,0.2638 z m 3.98553,2.6635 q 0.12339,-0.96584 0.18722,-2.13165 0.0681,-1.17007 0.0808,-2.2125 0.51057,0.009 0.88074,0.009 0.42973,0 0.82543,-0.009 l -0.0425,0.57865 q 0.14041,-0.15742 0.24253,-0.24677 0.10211,-0.0936 0.25103,-0.17871 0.15317,-0.0894 0.32336,-0.14466 0.1702,-0.0553 0.37017,-0.0851 0.20423,-0.034 0.42548,-0.034 0.30635,0 0.59567,0.0681 0.29359,0.0638 0.48931,0.18721 0.19572,0.11914 0.32762,0.3021 0.13189,0.1787 0.17444,0.38718 0.0426,0.20849 0.0426,0.42974 0,0.16168 -0.034,0.69778 l -0.0723,1.54024 q -0.0213,0.45526 -0.0213,0.84245 -0.42974,-0.009 -0.80416,-0.009 -0.50632,0 -0.92329,0.009 0.0383,-0.38719 0.0808,-1.14879 0.0426,-0.76587 0.0426,-1.07647 0,-0.48079 -0.18721,-0.668 -0.18296,-0.19147 -0.46378,-0.19147 -0.24678,0 -0.46803,0.16168 -0.21699,0.16169 -0.33612,0.47229 -0.11914,0.30634 -0.1702,1.01264 -0.0468,0.7063 -0.0638,1.43812 -0.42548,-0.009 -0.82968,-0.009 -0.42548,0 -0.9233,0.009 z m -45.05284,-10.89227 0.0851,-0.89351 0.16594,-3.02941 0.0468,-1.22113 v -0.66375 q 0.65949,0.009 1.16581,0.009 0.36166,0 1.0169,-0.009 l 1.82106,3.30173 0.25103,0.48504 q 0.0468,-0.7148 0.0936,-2.00401 0.0511,-1.2892 0.0511,-1.78276 0.52334,0.009 0.8382,0.009 0.14466,0 0.83394,-0.009 l -0.10212,1.26793 -0.19146,3.52298 -0.0255,1.01689 q -0.55313,-0.009 -1.03392,-0.009 -0.39995,0 -1.10625,0.009 -0.22125,-0.41697 -0.32762,-0.60418 l -0.7148,-1.21262 q -0.35315,-0.59567 -0.65099,-1.14028 -0.19572,-0.34464 -0.4042,-0.75736 l -0.0893,2.01678 -0.0426,1.69766 q -0.5276,-0.009 -0.80416,-0.009 -0.23401,0 -0.87649,0.009 z m 7.21067,1.94445 q -0.1319,-1.0169 -0.1787,-1.26368 0.26805,0.12764 0.47228,0.17445 0.20849,0.0468 0.3574,0.0468 0.15743,0 0.29359,-0.0426 0.1404,-0.0426 0.22125,-0.10637 0.0808,-0.0596 0.17444,-0.18721 0.0979,-0.12764 0.14467,-0.22125 0.0468,-0.0894 0.0936,-0.25954 l -0.7999,-2.42098 -0.68502,-2.00827 q 0.63396,0.009 0.88925,0.009 0.29783,0 0.81267,-0.009 0.0808,0.32762 0.29783,1.13178 0.22125,0.80416 0.31911,1.25942 0.0553,0.25103 0.10637,0.63822 l 0.0894,-0.34038 q 0.0425,-0.13616 0.0979,-0.31061 0.0553,-0.17444 0.14041,-0.41697 l 0.27656,-0.77437 0.45952,-1.18709 q 0.53185,0.009 0.80416,0.009 0.23827,0 0.85096,-0.009 l -0.82118,1.85509 -1.48492,3.44214 q -0.14467,0.28932 -0.27656,0.45952 -0.12339,0.15317 -0.26806,0.26805 -0.13615,0.10637 -0.29358,0.1787 -0.21274,0.0979 -0.46803,0.15317 -0.28081,0.0596 -0.57014,0.0596 -0.1319,0 -0.34889,-0.0213 -0.217,-0.017 -0.35315,-0.0383 -0.1319,-0.017 -0.35315,-0.0681 z m 5.9555,-1.94445 q 0.11914,-1.34026 0.20849,-3.12302 0.0894,-1.78276 0.0894,-2.68478 0.49355,0.009 0.92329,0.009 0.42122,0 0.82543,-0.009 -0.0936,0.66375 -0.13615,1.4594 0.38718,-0.0638 0.59567,-0.0851 0.20848,-0.0213 0.41271,-0.0213 0.65524,0 1.11902,0.20848 0.46802,0.20423 0.75735,0.69353 0.29358,0.48931 0.29358,1.1956 0,0.7063 -0.27656,1.30197 -0.27656,0.59142 -0.74034,0.88075 -0.46377,0.28507 -1.08071,0.28507 -0.22976,0 -0.43825,-0.0468 -0.20848,-0.0468 -0.37868,-0.13615 -0.17019,-0.0936 -0.28507,-0.19572 -0.11488,-0.10212 -0.26379,-0.27656 l -0.017,0.54461 q -0.45527,-0.009 -0.76161,-0.009 -0.25104,0 -0.84671,0.009 z m 1.79127,-3.1528 q -0.034,0.70629 -0.034,0.86372 0,0.39995 0.0681,0.63397 0.0723,0.23401 0.26805,0.37442 0.19998,0.14041 0.44676,0.14041 0.25528,0 0.44675,-0.14041 0.19147,-0.14041 0.28933,-0.40846 0.10211,-0.27231 0.10211,-0.57015 0,-0.44675 -0.24252,-0.7148 -0.23827,-0.27231 -0.68928,-0.27231 -0.28082,0 -0.65524,0.0936 z m 4.04084,5.09725 q -0.13189,-1.0169 -0.1787,-1.26368 0.26805,0.12764 0.47229,0.17445 0.20848,0.0468 0.3574,0.0468 0.15743,0 0.29358,-0.0426 0.14041,-0.0426 0.22125,-0.10637 0.0808,-0.0596 0.17445,-0.18721 0.0979,-0.12764 0.14466,-0.22125 0.0468,-0.0894 0.0936,-0.25954 l -0.7999,-2.42098 -0.68502,-2.00827 q 0.63396,0.009 0.88925,0.009 0.29784,0 0.81267,-0.009 0.0808,0.32762 0.29784,1.13178 0.22124,0.80416 0.31911,1.25942 0.0553,0.25103 0.10637,0.63822 l 0.0893,-0.34038 q 0.0425,-0.13616 0.0979,-0.31061 0.0553,-0.17444 0.1404,-0.41697 l 0.27657,-0.77437 0.45952,-1.18709 q 0.53185,0.009 0.80415,0.009 0.23827,0 0.85096,-0.009 l -0.82117,1.85509 -1.48493,3.44214 q -0.14466,0.28932 -0.27656,0.45952 -0.12339,0.15317 -0.26805,0.26805 -0.13616,0.10637 -0.29358,0.1787 -0.21274,0.0979 -0.46803,0.15317 -0.28082,0.0596 -0.57015,0.0596 -0.13189,0 -0.34889,-0.0213 -0.21699,-0.017 -0.35315,-0.0383 -0.1319,-0.017 -0.35315,-0.0681 z m 6.31291,-1.41685 q 0.54887,0.18721 0.96584,0.25954 0.41697,0.0766 0.72757,0.0766 0.2255,0 0.40846,-0.0511 0.18296,-0.0468 0.29358,-0.11914 0.11063,-0.0723 0.18721,-0.18295 0.0808,-0.11063 0.12339,-0.24678 0.0426,-0.13615 0.0596,-0.31486 0.017,-0.1787 0.0298,-0.49355 -0.16593,0.14892 -0.28932,0.23827 -0.11914,0.0893 -0.29784,0.17444 -0.1787,0.0808 -0.39144,0.12765 -0.20849,0.0426 -0.4425,0.0426 -0.54036,0 -0.97435,-0.25104 -0.43399,-0.25103 -0.64673,-0.70204 -0.21274,-0.45101 -0.21274,-0.97435 0,-0.61694 0.22976,-1.11476 0.22976,-0.49781 0.65524,-0.84245 0.42973,-0.34464 0.94031,-0.47653 0.51058,-0.1319 1.15731,-0.1319 0.37016,0 0.83819,0.0468 0.47228,0.0426 1.29346,0.19147 l -0.10211,1.40408 -0.0894,1.54024 q -0.009,0.16593 -0.009,0.2723 l -0.034,1.38281 q -0.009,0.2638 -0.0638,0.50207 -0.0468,0.217 -0.15742,0.40421 -0.11063,0.18721 -0.27231,0.32762 -0.1787,0.15317 -0.39995,0.24252 -0.22551,0.0936 -0.53185,0.15317 -0.33188,0.0596 -0.69353,0.0596 -0.20423,0 -0.50207,-0.0213 -0.29784,-0.017 -0.61269,-0.0553 -0.3106,-0.0383 -0.54036,-0.0808 -0.22551,-0.0426 -0.5744,-0.12339 l -0.0298,-0.56163 q -0.004,-0.16168 -0.0426,-0.70204 z m 2.92305,-3.6804 q -0.2638,-0.0511 -0.47229,-0.0511 -0.38293,0 -0.66374,0.14892 -0.27657,0.14466 -0.42974,0.43824 -0.15317,0.28933 -0.15317,0.60418 0,0.22976 0.0808,0.42548 0.0808,0.19572 0.26805,0.3106 0.18721,0.11063 0.3957,0.11063 0.30634,0 0.54461,-0.22125 0.23827,-0.22125 0.32762,-0.60418 0.0894,-0.38294 0.10212,-1.16156 z m 3.28774,3.6804 q 0.54887,0.18721 0.96584,0.25954 0.41697,0.0766 0.72757,0.0766 0.2255,0 0.40846,-0.0511 0.18296,-0.0468 0.29358,-0.11914 0.11063,-0.0723 0.18721,-0.18295 0.0808,-0.11063 0.12339,-0.24678 0.0426,-0.13615 0.0596,-0.31486 0.017,-0.1787 0.0298,-0.49355 -0.16593,0.14892 -0.28932,0.23827 -0.11914,0.0893 -0.29784,0.17444 -0.1787,0.0808 -0.39144,0.12765 -0.20849,0.0426 -0.4425,0.0426 -0.54036,0 -0.97435,-0.25104 -0.43399,-0.25103 -0.64673,-0.70204 -0.21274,-0.45101 -0.21274,-0.97435 0,-0.61694 0.22976,-1.11476 0.22976,-0.49781 0.65524,-0.84245 0.42973,-0.34464 0.94031,-0.47653 0.51058,-0.1319 1.15731,-0.1319 0.37016,0 0.83819,0.0468 0.47228,0.0426 1.29346,0.19147 l -0.10211,1.40408 -0.0893,1.54024 q -0.009,0.16593 -0.009,0.2723 l -0.034,1.38281 q -0.009,0.2638 -0.0638,0.50207 -0.0468,0.217 -0.15743,0.40421 -0.11063,0.18721 -0.27231,0.32762 -0.1787,0.15317 -0.39995,0.24252 -0.22551,0.0936 -0.53185,0.15317 -0.33188,0.0596 -0.69353,0.0596 -0.20423,0 -0.50207,-0.0213 -0.29784,-0.017 -0.61269,-0.0553 -0.3106,-0.0383 -0.54036,-0.0808 -0.2255,-0.0426 -0.5744,-0.12339 l -0.0298,-0.56163 q -0.004,-0.16168 -0.0426,-0.70204 z m 2.92305,-3.6804 q -0.2638,-0.0511 -0.47229,-0.0511 -0.38293,0 -0.66374,0.14892 -0.27657,0.14466 -0.42974,0.43824 -0.15317,0.28933 -0.15317,0.60418 0,0.22976 0.0808,0.42548 0.0808,0.19572 0.26805,0.3106 0.18721,0.11063 0.3957,0.11063 0.30634,0 0.54461,-0.22125 0.23827,-0.22125 0.32762,-0.60418 0.0893,-0.38294 0.10212,-1.16156 z m 2.56017,1.48067 q 0.0511,-0.61695 0.0638,-1.17858 0.60418,0.017 1.14029,0.017 0.54461,0 1.14454,-0.017 -0.0511,0.54887 -0.0638,1.17858 -0.60418,-0.0128 -1.14454,-0.0128 -0.54036,0 -1.14029,0.0128 z m 3.05373,3.66338 q 0.0808,-0.87224 0.13615,-1.74021 0.0979,-1.48493 0.1319,-2.48906 0.0383,-1.00839 0.0383,-1.9955 0.86373,-0.1319 1.35303,-0.17445 0.4893,-0.0468 0.9786,-0.0468 0.6127,0 1.12753,0.12764 0.51483,0.12764 0.82543,0.45101 0.31485,0.32336 0.47228,0.77012 0.15743,0.44675 0.15743,0.93605 0,0.44676 -0.12765,0.86798 -0.12764,0.41697 -0.39144,0.7531 -0.2638,0.33613 -0.60843,0.49781 -0.34039,0.16169 -0.76161,0.16169 -0.20849,0 -0.43399,-0.0426 -0.22125,-0.0383 -0.42123,-0.11488 -0.19997,-0.0766 -0.33613,-0.15317 -0.1319,-0.0808 -0.33187,-0.22976 l -0.0468,1.18709 q -0.0298,0.81692 -0.0298,1.23389 -0.49355,-0.009 -0.8467,-0.009 -0.30635,0 -0.885,0.009 z m 1.96146,-5.1398 q -0.034,0.19147 -0.0468,0.31486 -0.0128,0.11913 -0.0255,0.32762 -0.0128,0.20423 -0.0128,0.32761 0,0.3489 0.10637,0.58717 0.11062,0.23401 0.30209,0.36591 0.19572,0.12764 0.41697,0.12764 0.23401,0 0.42973,-0.13189 0.19572,-0.13616 0.3106,-0.40421 0.11488,-0.26805 0.11488,-0.60418 0,-0.45527 -0.24252,-0.73183 -0.23827,-0.27656 -0.69779,-0.27656 -0.28933,0 -0.65524,0.0979 z m 4.75565,0.0426 q 0.0808,-0.42123 0.10211,-0.57865 0.0213,-0.16169 0.0681,-0.50207 1.22538,-0.26805 2.10613,-0.26805 0.50206,0 0.91903,0.11488 0.41697,0.11062 0.65099,0.36165 0.23401,0.25104 0.23401,0.71907 0,0.23826 -0.0638,1.07221 -0.0638,0.83394 -0.0979,2.18696 -0.41697,-0.009 -0.82969,-0.009 -0.39995,0 -0.85096,0.009 0.0596,-0.46803 0.1319,-1.93168 -0.16168,0.0766 -0.25529,0.11063 -0.0894,0.034 -0.31911,0.10211 -0.22976,0.0681 -0.36165,0.11488 -0.12765,0.0468 -0.22551,0.11914 -0.0936,0.0723 -0.13615,0.14892 -0.0383,0.0766 -0.0383,0.17019 0,0.14466 0.11488,0.24678 0.11488,0.10211 0.36592,0.10211 0.0894,0 0.19146,-0.0128 0.10212,-0.017 0.28082,-0.0766 -0.12339,0.32762 -0.29358,0.95733 -0.36591,0.0596 -0.69353,0.0596 -0.5276,0 -0.88075,-0.14467 -0.34889,-0.14891 -0.54036,-0.47653 -0.18721,-0.32762 -0.18721,-0.65524 0,-0.19998 0.0681,-0.39144 0.0723,-0.19147 0.22125,-0.37443 0.14892,-0.18295 0.34889,-0.3106 0.19998,-0.1319 0.54462,-0.24678 0.34889,-0.11488 0.88074,-0.21699 0.22125,-0.0426 0.40421,-0.0893 0.18721,-0.0511 0.26379,-0.0851 0.0808,-0.0383 0.12765,-0.0851 0.051,-0.0511 0.0723,-0.10212 0.0213,-0.0553 0.0213,-0.11488 0,-0.16168 -0.13615,-0.24678 -0.13615,-0.0893 -0.39995,-0.0893 -0.73183,0 -1.80829,0.41272 z m 2.9741,-2.63372 q 0,0.2255 -0.11488,0.42548 -0.11062,0.19572 -0.3106,0.3106 -0.19997,0.11488 -0.42548,0.11488 -0.2255,0 -0.42548,-0.11063 -0.19572,-0.11488 -0.3106,-0.31485 -0.11488,-0.19998 -0.11488,-0.42548 0,-0.22551 0.11488,-0.42123 0.11488,-0.19997 0.3106,-0.31485 0.19998,-0.11488 0.42548,-0.11488 0.22551,0 0.42548,0.11488 0.19998,0.11488 0.3106,0.31485 0.11488,0.19572 0.11488,0.42123 z m -0.55738,0.0128 q 0,-0.12339 -0.0894,-0.20848 -0.0851,-0.0851 -0.20423,-0.0851 -0.11913,0 -0.20848,0.0851 -0.0851,0.0851 -0.0851,0.20848 0,0.11914 0.0851,0.20849 0.0894,0.0851 0.20848,0.0851 0.11488,0 0.20423,-0.0851 0.0894,-0.0851 0.0894,-0.20849 z m 2.90907,5.72696 q 0.11914,-1.34026 0.20849,-3.12302 0.0894,-1.78276 0.0894,-2.68478 0.49355,0.009 0.92329,0.009 0.42122,0 0.82543,-0.009 -0.0936,0.66375 -0.13615,1.4594 0.38718,-0.0638 0.59567,-0.0851 0.20848,-0.0213 0.41271,-0.0213 0.65524,0 1.11902,0.20848 0.46802,0.20423 0.75735,0.69353 0.29358,0.48931 0.29358,1.1956 0,0.7063 -0.27656,1.30197 -0.27656,0.59142 -0.74034,0.88075 -0.46377,0.28507 -1.08071,0.28507 -0.22976,0 -0.43825,-0.0468 -0.20848,-0.0468 -0.37868,-0.13615 -0.17019,-0.0936 -0.28507,-0.19572 -0.11488,-0.10212 -0.2638,-0.27656 l -0.017,0.54461 q -0.45527,-0.009 -0.76161,-0.009 -0.25104,0 -0.84671,0.009 z m 1.79127,-3.1528 q -0.034,0.70629 -0.034,0.86372 0,0.39995 0.0681,0.63397 0.0723,0.23401 0.26805,0.37442 0.19998,0.14041 0.44676,0.14041 0.25528,0 0.44675,-0.14041 0.19147,-0.14041 0.28933,-0.40846 0.10211,-0.27231 0.10211,-0.57015 0,-0.44675 -0.24252,-0.7148 -0.23827,-0.27231 -0.68928,-0.27231 -0.28082,0 -0.65524,0.0936 z m 4.04084,5.09725 q -0.1319,-1.0169 -0.1787,-1.26368 0.26805,0.12764 0.47228,0.17445 0.20849,0.0468 0.35741,0.0468 0.15742,0 0.29358,-0.0426 0.14041,-0.0426 0.22125,-0.10637 0.0808,-0.0596 0.17444,-0.18721 0.0979,-0.12764 0.14467,-0.22125 0.0468,-0.0894 0.0936,-0.25954 l -0.7999,-2.42098 -0.68502,-2.00827 q 0.63396,0.009 0.88925,0.009 0.29784,0 0.81267,-0.009 0.0808,0.32762 0.29783,1.13178 0.22125,0.80416 0.31911,1.25942 0.0553,0.25103 0.10637,0.63822 l 0.0893,-0.34038 q 0.0426,-0.13616 0.0979,-0.31061 0.0553,-0.17444 0.14041,-0.41697 l 0.27656,-0.77437 0.45952,-1.18709 q 0.53185,0.009 0.80416,0.009 0.23827,0 0.85096,-0.009 l -0.82118,1.85509 -1.48492,3.44214 q -0.14466,0.28932 -0.27656,0.45952 -0.12339,0.15317 -0.26806,0.26805 -0.13615,0.10637 -0.29358,0.1787 -0.21274,0.0979 -0.46803,0.15317 -0.28081,0.0596 -0.57014,0.0596 -0.1319,0 -0.34889,-0.0213 -0.217,-0.017 -0.35315,-0.0383 -0.1319,-0.017 -0.35315,-0.0681 z m 6.31291,-1.41685 q 0.54887,0.18721 0.96584,0.25954 0.41697,0.0766 0.72757,0.0766 0.2255,0 0.40846,-0.0511 0.18295,-0.0468 0.29358,-0.11914 0.11062,-0.0723 0.18721,-0.18295 0.0808,-0.11063 0.12339,-0.24678 0.0426,-0.13615 0.0596,-0.31486 0.017,-0.1787 0.0298,-0.49355 -0.16594,0.14892 -0.28933,0.23827 -0.11913,0.0893 -0.29783,0.17444 -0.1787,0.0808 -0.39144,0.12765 -0.20849,0.0426 -0.4425,0.0426 -0.54036,0 -0.97435,-0.25104 -0.43399,-0.25103 -0.64673,-0.70204 -0.21274,-0.45101 -0.21274,-0.97435 0,-0.61694 0.22976,-1.11476 0.22976,-0.49781 0.65524,-0.84245 0.42973,-0.34464 0.94031,-0.47653 0.51057,-0.1319 1.1573,-0.1319 0.37017,0 0.8382,0.0468 0.47228,0.0426 1.29346,0.19147 l -0.10212,1.40408 -0.0894,1.54024 q -0.009,0.16593 -0.009,0.2723 l -0.034,1.38281 q -0.009,0.2638 -0.0638,0.50207 -0.0468,0.217 -0.15743,0.40421 -0.11062,0.18721 -0.2723,0.32762 -0.1787,0.15317 -0.39995,0.24252 -0.22551,0.0936 -0.53185,0.15317 -0.33188,0.0596 -0.69354,0.0596 -0.20423,0 -0.50206,-0.0213 -0.29784,-0.017 -0.61269,-0.0553 -0.3106,-0.0383 -0.54036,-0.0808 -0.22551,-0.0426 -0.5744,-0.12339 l -0.0298,-0.56163 q -0.004,-0.16168 -0.0426,-0.70204 z m 2.92304,-3.6804 q -0.26379,-0.0511 -0.47228,-0.0511 -0.38293,0 -0.66375,0.14892 -0.27656,0.14466 -0.42973,0.43824 -0.15317,0.28933 -0.15317,0.60418 0,0.22976 0.0808,0.42548 0.0808,0.19572 0.26805,0.3106 0.18721,0.11063 0.3957,0.11063 0.30634,0 0.54461,-0.22125 0.23827,-0.22125 0.32762,-0.60418 0.0893,-0.38294 0.10211,-1.16156 z m 3.28775,3.6804 q 0.54886,0.18721 0.96584,0.25954 0.41697,0.0766 0.72757,0.0766 0.2255,0 0.40846,-0.0511 0.18295,-0.0468 0.29358,-0.11914 0.11062,-0.0723 0.18721,-0.18295 0.0808,-0.11063 0.12339,-0.24678 0.0425,-0.13615 0.0596,-0.31486 0.017,-0.1787 0.0298,-0.49355 -0.16594,0.14892 -0.28933,0.23827 -0.11913,0.0893 -0.29783,0.17444 -0.1787,0.0808 -0.39144,0.12765 -0.20849,0.0426 -0.4425,0.0426 -0.54036,0 -0.97435,-0.25104 -0.43399,-0.25103 -0.64673,-0.70204 -0.21274,-0.45101 -0.21274,-0.97435 0,-0.61694 0.22976,-1.11476 0.22976,-0.49781 0.65524,-0.84245 0.42973,-0.34464 0.94031,-0.47653 0.51057,-0.1319 1.1573,-0.1319 0.37017,0 0.8382,0.0468 0.47228,0.0426 1.29346,0.19147 l -0.10212,1.40408 -0.0893,1.54024 q -0.009,0.16593 -0.009,0.2723 l -0.034,1.38281 q -0.009,0.2638 -0.0638,0.50207 -0.0468,0.217 -0.15743,0.40421 -0.11062,0.18721 -0.2723,0.32762 -0.17871,0.15317 -0.39996,0.24252 -0.2255,0.0936 -0.53185,0.15317 -0.33187,0.0596 -0.69353,0.0596 -0.20423,0 -0.50206,-0.0213 -0.29784,-0.017 -0.6127,-0.0553 -0.3106,-0.0383 -0.54035,-0.0808 -0.22551,-0.0426 -0.5744,-0.12339 l -0.0298,-0.56163 q -0.004,-0.16168 -0.0425,-0.70204 z m 2.92304,-3.6804 q -0.26379,-0.0511 -0.47228,-0.0511 -0.38293,0 -0.66375,0.14892 -0.27656,0.14466 -0.42973,0.43824 -0.15318,0.28933 -0.15318,0.60418 0,0.22976 0.0808,0.42548 0.0808,0.19572 0.26805,0.3106 0.18721,0.11063 0.39569,0.11063 0.30635,0 0.54462,-0.22125 0.23827,-0.22125 0.32762,-0.60418 0.0894,-0.38294 0.10211,-1.16156 z m 26.31487,17.99143 q 0.49151,-0.91203 0.92156,-1.76383 0.43565,-0.85178 0.8713,-1.81543 0.44123,-0.96365 0.67023,-1.58314 0.22898,-0.61948 0.36862,-1.17014 0.14522,-0.55065 0.18989,-0.89482 0.0503,-0.34416 0.0503,-0.67971 0,-0.45602 -0.10612,-0.80877 -0.10053,-0.36138 -0.31277,-0.54205 -0.21224,-0.18069 -0.46916,-0.18069 -0.43564,0 -0.74283,0.4388 -0.3016,0.4302 -0.3016,1.14433 0,0.413 0.11728,0.71413 0.1173,0.29255 0.34629,0.45602 0.22899,0.15487 0.46357,0.15487 0.14522,0 0.40772,-0.0947 -0.53618,1.16155 -1.08353,2.46075 -0.1899,0.0431 -0.32394,0.0431 -0.36862,0 -0.80427,-0.21511 -0.43006,-0.21509 -0.76517,-0.64529 -0.32953,-0.4388 -0.50268,-1.11852 -0.17313,-0.68832 -0.17313,-1.44547 0,-1.01528 0.29043,-1.91008 0.29042,-0.89482 0.80985,-1.46268 0.52501,-0.57647 1.13938,-0.80878 0.61996,-0.24091 1.33487,-0.24091 0.65906,0 1.26784,0.26672 0.60879,0.26673 0.99417,0.81739 0.39096,0.55065 0.58086,1.325 0.1899,0.76577 0.1899,1.4799 0,0.50762 -0.0782,1.13571 -0.0782,0.6281 -0.25133,1.32502 -0.16755,0.69693 -0.46916,1.59174 -0.3016,0.88622 -0.7149,1.82404 -0.40773,0.93784 -1.00534,2.20263 z m 7.77621,0 q 0.0223,-0.40439 0.0335,-1.0669 0.0168,-0.67111 0.0391,-1.36804 0.58086,-0.73133 1.06677,-1.41964 0.78752,-1.11853 1.39631,-2.09939 0.48591,-0.78295 0.81544,-1.43686 0.1899,-0.38718 0.25133,-0.64529 0.0447,-0.18069 0.0447,-0.36998 0,-0.24952 -0.0726,-0.4302 -0.0726,-0.18928 -0.22899,-0.31835 -0.15639,-0.12906 -0.37979,-0.20649 -0.22341,-0.0774 -0.50826,-0.0774 -0.39096,0 -0.8266,0.10326 -0.43007,0.10327 -1.17848,0.39578 l 0.14521,-1.23036 q 0.0503,-0.36998 0.14521,-1.41966 1.46891,-0.37858 2.75351,-0.37858 0.58645,0 1.12263,0.16347 0.53618,0.16347 0.96066,0.55926 0.42447,0.38718 0.63671,0.91203 0.21224,0.51624 0.21224,1.11852 0,0.39578 -0.0615,0.78296 -0.0615,0.36997 -0.229,0.86901 -0.21223,0.61947 -0.525,1.22176 -0.46358,0.90341 -1.07237,1.86706 -0.58086,0.91203 -1.39629,2.04776 l 0.61437,0.009 q 0.21782,0 0.86012,-0.0172 0.64788,-0.0173 0.89922,-0.0344 0.25133,-0.0173 0.61995,-0.0774 -0.0168,0.41299 -0.0558,1.03248 -0.0335,0.61948 -0.0726,1.5143 -1.39071,-0.0172 -2.90989,-0.0172 -1.83195,0 -3.09979,0.0172 z M 269.33033,456.0842 q 0.0679,-1.1932 0.17243,-3.85672 0.10451,-2.66352 0.12019,-3.81053 -0.19334,0.17706 -0.37623,0.35411 -0.1829,0.16935 -0.79428,0.81599 0.0314,-0.65433 0.0575,-1.53191 0.0261,-0.88528 0.0261,-1.30096 0.2665,-0.22325 0.60093,-0.53118 0.33965,-0.30791 0.41281,-0.3849 0.0784,-0.0847 0.22992,-0.26173 0.46506,0.0154 1.07122,0.0154 0.5748,0 1.17572,-0.0154 l -0.1045,1.71666 -0.2247,5.69656 -0.0522,2.09386 v 1.00075 q -0.44416,-0.0154 -1.08166,-0.0154 -0.74202,0 -1.23321,0.0154 z m 7.31712,0 q 0.45984,-0.81599 0.86219,-1.57809 0.40759,-0.76211 0.81517,-1.6243 0.41282,-0.86217 0.62706,-1.41644 0.21425,-0.55426 0.34489,-1.04693 0.13586,-0.49267 0.17766,-0.8006 0.047,-0.30791 0.047,-0.60815 0,-0.40798 -0.0993,-0.72361 -0.0941,-0.32332 -0.29263,-0.48497 -0.19856,-0.16166 -0.43893,-0.16166 -0.40759,0 -0.69499,0.3926 -0.28218,0.3849 -0.28218,1.02384 0,0.3695 0.10974,0.63894 0.10973,0.26173 0.32398,0.40799 0.21424,0.13857 0.43371,0.13857 0.13586,0 0.38146,-0.0847 -0.50165,1.03924 -1.01374,2.20164 -0.17767,0.0385 -0.30308,0.0385 -0.34487,0 -0.75246,-0.19245 -0.40236,-0.19246 -0.71589,-0.57736 -0.3083,-0.3926 -0.47029,-1.00074 -0.16199,-0.61585 -0.16199,-1.29328 0,-0.90836 0.27172,-1.70895 0.27172,-0.8006 0.75769,-1.30868 0.4912,-0.51577 1.066,-0.72361 0.58002,-0.21555 1.24888,-0.21555 0.61661,0 1.18618,0.23864 0.56958,0.23864 0.93013,0.73132 0.36578,0.49267 0.54345,1.1855 0.17766,0.68512 0.17766,1.32406 0,0.45419 -0.0732,1.01614 -0.0732,0.56197 -0.23515,1.1855 -0.15676,0.62354 -0.43894,1.42414 -0.28217,0.79289 -0.66885,1.63198 -0.38146,0.83909 -0.94058,1.9707 z m 9.33795,-26.30329 -2.45605,-5.30035 -1.85483,-3.78717 -0.84349,-1.6622 q -0.36803,-0.72183 -0.71878,-1.37387 l -0.48045,-0.87433 q 0.98135,-1.1328 1.464,-1.70472 0.37745,-0.44728 1.30192,-1.57282 1.26934,2.81174 2.31288,4.88352 l 3.36119,-3.99797 q -0.37416,-0.78974 -1.03611,-2.09562 -0.66069,-1.32241 -0.91264,-1.79079 -0.13339,-0.24797 -0.47676,-0.84861 l 1.47638,-1.7194 q 0.22895,-0.2713 1.28954,-1.55815 2.31653,4.98446 3.49465,7.36294 1.17319,2.36929 2.90227,5.58365 l -1.35881,1.58008 q -0.3032,0.35929 -1.43805,1.73413 -1.02109,-2.36907 -2.52651,-5.33716 l -3.37232,3.99611 2.6317,5.21252 -1.44543,1.68273 q -0.27226,0.32262 -1.3143,1.58748 z m 11.27408,-21.14429 q -0.14062,-1.16615 -0.20871,-1.59312 -0.0709,-0.43795 -0.21674,-1.36194 1.9499,-1.90467 3.47993,-2.77691 0.8722,-0.4972 1.67322,-0.61394 0.79818,-0.12771 1.37222,0.2878 0.57403,0.4155 0.88632,1.62226 0.15898,0.61435 0.60456,2.82777 0.44557,2.21342 1.28925,5.73574 -0.73005,0.391 -1.44702,0.79972 -0.69481,0.39608 -1.47263,0.86467 -0.20881,-1.26574 -1.05977,-5.11122 -0.22978,0.35759 -0.36968,0.53806 -0.1325,0.17624 -0.48622,0.57931 -0.35372,0.40307 -0.55163,0.65436 -0.19051,0.2471 -0.31225,0.5305 -0.11435,0.27921 -0.13716,0.51881 -0.0154,0.23539 0.047,0.47675 0.0965,0.37299 0.36424,0.5225 0.2677,0.14954 0.7038,-0.099 0.15522,-0.0885 0.3241,-0.22252 0.16604,-0.14501 0.43674,-0.47558 0.004,0.96692 0.12876,2.75911 -0.59592,0.51597 -1.16507,0.84042 -0.91654,0.52248 -1.62656,0.49922 -0.70547,-0.0385 -1.25669,-0.69355 -0.54383,-0.65933 -0.76243,-1.50405 -0.13344,-0.51561 -0.14292,-1.0767 -0.002,-0.56531 0.13451,-1.18452 0.13663,-0.61921 0.39886,-1.14637 0.25939,-0.53812 0.78145,-1.17564 0.52945,-0.64173 1.38525,-1.43172 0.35597,-0.32881 0.64258,-0.63068 0.29115,-0.31704 0.40149,-0.48066 0.11488,-0.17879 0.16496,-0.34582 0.0546,-0.1822 0.0575,-0.33492 6e-5,-0.16368 -0.0397,-0.31727 -0.10788,-0.41688 -0.40119,-0.50145 -0.29614,-0.0955 -0.75441,0.1657 -1.27134,0.72476 -2.86601,2.85495 z m 12.18291,-6.11942 q -0.0208,-1.18426 -0.0449,-1.62159 -0.0258,-0.44879 -0.0763,-1.39482 2.1207,-1.44783 3.72171,-1.96864 0.91266,-0.29689 1.7164,-0.23353 0.80204,0.0519 1.32745,0.59079 0.52541,0.53891 0.71188,1.80164 0.0949,0.64284 0.31118,2.93053 0.21625,2.2877 0.69346,5.95828 -0.76136,0.22361 -1.5116,0.46767 -0.72703,0.23651 -1.54348,0.52616 -0.0782,-1.29795 -0.52987,-5.28963 -0.26338,0.30224 -0.41998,0.44942 -0.14886,0.14469 -0.53939,0.46422 -0.39054,0.31954 -0.61165,0.52381 -0.21339,0.20174 -0.36246,0.45477 -0.14134,0.2505 -0.18816,0.48229 -0.0391,0.22927 -0.002,0.48182 0.0576,0.3903 0.30715,0.59787 0.24952,0.20757 0.70584,0.0591 0.16243,-0.0529 0.34296,-0.14766 0.17885,-0.10636 0.47995,-0.3727 -0.0938,0.95689 -0.15224,2.75647 -0.64142,0.37709 -1.23697,0.57084 -0.95906,0.31199 -1.65865,0.13051 -0.69355,-0.19546 -1.17213,-0.96614 -0.47084,-0.77321 -0.60137,-1.65712 -0.0797,-0.53954 -0.0322,-1.09636 0.0552,-0.55934 0.25301,-1.14102 0.19781,-0.58168 0.51046,-1.04431 0.31097,-0.47412 0.89168,-0.98785 0.58844,-0.51627 1.51455,-1.10627 0.38524,-0.24563 0.69917,-0.4801 0.31997,-0.24846 0.44563,-0.38559 0.13169,-0.15111 0.19812,-0.30507 0.0725,-0.16794 0.0908,-0.31827 0.0167,-0.16181 -0.007,-0.32252 -0.0644,-0.43621 -0.34582,-0.5853 -0.2831,-0.16055 -0.76262,-0.005 -1.33032,0.43276 -3.12267,2.18283 z m 12.99618,6.48125 q 1.05028,0.36834 1.83561,0.45602 0.78609,0.0994 1.3614,0.0166 0.4177,-0.0602 0.74741,-0.24926 0.33047,-0.17744 0.52238,-0.40578 0.19192,-0.22834 0.31391,-0.55288 0.12987,-0.32567 0.18422,-0.71132 0.0543,-0.38565 0.0538,-0.88146 -5.8e-4,-0.49582 -0.0335,-1.36479 -0.28061,0.45363 -0.49311,0.73216 -0.20461,0.2774 -0.52033,0.55898 -0.31649,0.26989 -0.70213,0.45526 -0.37852,0.17256 -0.81198,0.23495 -1.00088,0.14406 -1.84984,-0.43036 -0.84895,-0.57443 -1.324,-1.7576 -0.47507,-1.18315 -0.56908,-2.62189 -0.11081,-1.69607 0.22534,-3.12586 0.33616,-1.42981 1.06235,-2.4907 0.73407,-1.06202 1.6561,-1.56075 0.92203,-0.49873 2.11994,-0.67114 0.68564,-0.0987 1.56096,-0.0948 0.88243,-0.009 2.43022,0.18152 l 0.063,3.88724 0.11116,4.25814 q 0.014,0.45845 0.0332,0.75087 l 0.18535,3.8106 q 0.0316,0.72748 -0.0281,1.39727 -0.0477,0.60901 -0.21899,1.15318 -0.17128,0.54416 -0.44553,0.97326 -0.3035,0.46874 -0.69726,0.77335 -0.40088,0.31746 -0.95761,0.5629 -0.60402,0.25223 -1.2739,0.34864 -0.37828,0.0545 -0.93378,0.0754 -0.55473,0.0326 -1.1448,0.011 -0.58219,-0.0224 -1.0154,-0.0782 -0.42534,-0.0569 -1.0861,-0.18608 l -0.15605,-1.53607 q -0.0369,-0.44336 -0.20491,-1.91867 z m 4.75315,-10.89718 q -0.49779,-0.0701 -0.88396,-0.0145 -0.70929,0.10209 -1.20268,0.58636 -0.48628,0.47142 -0.71726,1.31936 -0.23175,0.83623 -0.17519,1.7018 0.0413,0.63164 0.22616,1.14816 0.1849,0.5165 0.55229,0.78241 0.36664,0.25421 0.75281,0.19863 0.56743,-0.0816 0.96902,-0.75343 0.4016,-0.67177 0.49831,-1.74833 0.0967,-1.07655 -0.0195,-3.2205 z m 15.20258,4.57157 q -0.10683,0.70383 -0.4147,3.40311 -0.91995,0.25912 -1.5459,0.33378 -0.62602,0.0864 -1.26735,0.0786 -0.94221,-0.011 -1.73287,-0.22086 -0.79073,-0.19764 -1.366,-0.69823 -0.56735,-0.50049 -0.95129,-1.23381 -0.38389,-0.74505 -0.58417,-1.75819 -0.19236,-1.01303 -0.18646,-2.08241 0.008,-1.5042 0.42002,-2.93296 0.41178,-1.44053 1.04967,-2.24368 0.64582,-0.80305 1.47905,-1.13373 0.83324,-0.33069 1.70419,-0.3201 0.90262,0.011 1.71639,0.33818 0.82175,0.31556 1.38755,1.09808 0.56579,0.78254 0.79793,1.76079 0.24007,0.97837 0.23384,2.1065 -0.004,0.66984 -0.11116,1.49119 l -5.55037,-0.0557 q -0.009,0.18792 -0.01,0.3407 -0.007,1.26916 0.59934,1.8759 0.60636,0.60673 1.48522,0.61743 0.52257,0.006 1.18863,-0.16184 0.67404,-0.17984 1.65824,-0.60271 z m -4.84838,-3.86669 2.61285,0.0318 q 0.009,-0.19969 0.01,-0.3407 0.003,-0.61108 -0.14466,-1.04771 -0.14011,-0.43654 -0.41614,-0.63968 -0.26809,-0.20305 -0.60855,-0.2072 -0.23753,-0.002 -0.45988,0.11196 -0.22228,0.10307 -0.40562,0.32414 -0.17535,0.2094 -0.29568,0.48999 -0.12032,0.28059 -0.17723,0.5502 -0.0569,0.25786 -0.11488,0.72725 z m 8.68407,7.66111 q 0.4355,-2.61052 0.80383,-5.78869 0.3771,-3.18848 0.62455,-6.04438 0.94198,0.18608 1.62624,0.30406 0.79438,0.13697 1.52765,0.23973 l -0.20291,1.57402 q 0.29336,-0.38716 0.50131,-0.59975 0.20886,-0.22427 0.50241,-0.41028 0.30233,-0.19631 0.62881,-0.29382 0.32648,-0.0975 0.70254,-0.11549 0.38483,-0.0283 0.79381,0.0421 0.56628,0.0977 1.08649,0.37663 0.52899,0.26868 0.86428,0.66959 0.33621,0.38923 0.54074,0.93323 0.20544,0.53231 0.23932,1.11787 0.0339,0.58556 -0.0136,1.19257 -0.0347,0.44359 -0.21276,1.90358 l -0.46446,4.20271 q -0.1371,1.24227 -0.22024,2.30455 -0.79254,-0.16031 -1.48467,-0.27966 -0.93595,-0.16137 -1.70855,-0.27093 0.15393,-1.05007 0.39614,-3.12604 0.24311,-2.08765 0.30981,-2.9398 0.10324,-1.31909 -0.20261,-1.89239 -0.29709,-0.58361 -0.81618,-0.67312 -0.45618,-0.0787 -0.89987,0.29442 -0.43584,0.37443 -0.72277,1.18862 -0.286,0.8025 -0.53206,2.72401 -0.23819,1.92286 -0.4268,3.92526 -0.78468,-0.15896 -1.53187,-0.2878 -0.7865,-0.1356 -1.70855,-0.27092 z m 13.12416,2.426 q 0.0483,-0.51422 0.10397,-1.07423 0.0574,-0.57145 0.14104,-1.56823 l 0.068,-0.84535 q 0.6795,0.6941 1.18502,1.09861 0.50732,0.39305 0.96224,0.55073 0.37782,0.13094 0.62535,0.10819 0.25522,-0.0201 0.39378,-0.17729 0.13856,-0.15713 0.17097,-0.36312 0.0288,-0.18311 -0.029,-0.38416 -0.0483,-0.20984 -0.28497,-0.6177 -0.52423,-0.90578 -0.92177,-1.6349 -0.38982,-0.72644 -0.56814,-1.24683 -0.1706,-0.51771 -0.22245,-1.06668 -0.0442,-0.5463 0.0405,-1.08416 0.14945,-0.94985 0.64148,-1.64822 0.49975,-0.69569 1.26673,-0.81603 0.7765,-0.12911 1.802,0.22632 1.07176,0.37147 2.67241,1.3607 l -0.38259,3.2585 q -0.84655,-0.87266 -1.71012,-1.17198 -0.60914,-0.21112 -0.91552,-0.12423 -0.29868,0.0895 -0.3581,0.46722 -0.0198,0.12589 -0.007,0.25102 0.0128,0.12513 0.0701,0.27774 0.065,0.15528 0.15907,0.33269 0.10356,0.16865 0.49056,0.80964 0.38701,0.64099 0.60055,1.04084 0.35256,0.65319 0.50775,1.16556 0.16469,0.5036 0.20292,1.03579 0.0478,0.52339 -0.0368,1.06126 -0.12785,0.81252 -0.50575,1.40563 -0.36839,0.58433 -0.98015,0.85502 -0.60405,0.27336 -1.25561,0.22855 -0.65335,-0.0334 -1.31646,-0.26318 -0.44722,-0.155 -1.10773,-0.50461 -0.65281,-0.34694 -1.50222,-0.94305 z m 17.92199,4.70149 q -0.26757,0.60234 -1.19851,2.96576 -0.92226,-0.2403 -1.52557,-0.49891 -0.60618,-0.24764 -1.20424,-0.59145 -0.87863,-0.50508 -1.56837,-1.11583 -0.69259,-0.59978 -1.11148,-1.3699 -0.41149,-0.76585 -0.59598,-1.65327 -0.18163,-0.89837 -0.12766,-1.95116 0.0613,-1.04856 0.32159,-2.04579 0.36605,-1.4027 1.0915,-2.52319 0.72831,-1.13144 1.51631,-1.54801 0.79539,-0.41236 1.65359,-0.28448 0.8582,0.12787 1.67038,0.59476 0.84172,0.48388 1.525,1.21694 0.69353,0.72635 1.0364,1.75521 0.34287,1.02887 0.32701,2.06577 -0.008,1.04115 -0.28301,2.09317 -0.163,0.62464 -0.45918,1.33657 l -5.17868,-2.96443 q -0.0531,0.1711 -0.0903,0.31356 -0.30886,1.18353 0.11382,2.06924 0.42268,0.88571 1.24225,1.35686 0.48731,0.28013 1.15042,0.47229 0.67335,0.18544 1.69472,0.30629 z m -3.61429,-6.16094 2.43655,1.40067 q 0.056,-0.18205 0.0903,-0.31355 0.14871,-0.56985 0.11424,-1.05597 -0.0271,-0.48186 -0.2369,-0.81671 -0.20243,-0.33061 -0.51992,-0.51312 -0.2215,-0.12734 -0.45684,-0.1366 -0.23247,-0.0202 -0.45663,0.0904 -0.21391,0.10392 -0.3933,0.30322 -0.17938,0.19933 -0.29684,0.42167 -0.1146,0.21138 -0.28068,0.62002 z m 6.35582,11.72527 q 1.25212,-1.94396 2.63605,-4.43003 1.395,-2.48854 2.56612,-4.78415 0.75506,0.85637 1.30931,1.46352 0.64342,0.70487 1.2453,1.33499 l -0.70319,1.21612 q 0.38421,-0.11951 0.63585,-0.1506 0.25633,-0.0406 0.57335,0.0146 0.32808,0.0526 0.64404,0.20891 0.31595,0.15625 0.64828,0.41805 0.34341,0.25935 0.67468,0.62225 0.45868,0.50248 0.81665,1.12832 0.36904,0.62337 0.52573,1.2186 0.16139,0.58577 0.15669,1.20869 0,0.61346 -0.1667,1.14657 -0.16669,0.5331 -0.4112,1.02477 -0.17868,0.35931 -0.8221,1.49484 l -1.81045,3.30417 q -0.53498,0.97683 -0.96287,1.83725 -0.63402,-0.72377 -1.19463,-1.3379 -0.7581,-0.83049 -1.39183,-1.4955 0.48522,-0.79762 1.3906,-2.42033 0.91007,-1.63217 1.25333,-2.3224 0.53133,-1.06845 0.45792,-1.79155 -0.0623,-0.72558 -0.48281,-1.18618 -0.36949,-0.40477 -0.87944,-0.40838 -0.50358,0.004 -1.02521,0.49822 -0.51693,0.48537 -1.37392,1.9712 -0.85062,1.49282 -1.68486,3.0912 -0.62765,-0.71679 -1.23286,-1.37977 -0.63706,-0.6979 -1.39183,-1.4955 z m -71.25291,63.97308 q 0.47635,-2.49908 0.71,-3.94099 0.32242,-1.96738 0.81903,-5.41665 0.50439,-3.44717 0.67925,-4.86916 0.0625,-0.50868 0.1685,-1.43566 1.03171,0.31532 1.63928,0.47991 0.84903,0.22998 1.98416,0.4897 1.13655,0.24815 1.94665,0.4676 0.97366,0.26375 1.37654,0.45651 0.53245,0.25176 0.9048,0.62738 0.38012,0.37773 0.60442,0.84466 0.24691,0.54472 0.33866,1.23855 0.10375,0.79265 -3e-5,1.6366 -0.081,0.65896 -0.2718,1.22848 -0.18298,0.57162 -0.45158,0.98865 -0.25939,0.40758 -0.55482,0.65009 -0.29543,0.24251 -0.56602,0.3484 -0.26279,0.10794 -0.69695,0.16958 0.40004,0.21588 0.63224,0.42214 0.23362,0.19469 0.47707,0.57124 0.25266,0.36709 0.42168,0.89072 0.16903,0.52363 0.20699,1.13121 0.0472,0.59813 -0.031,1.23398 -0.10804,0.87863 -0.39803,1.60045 -0.28998,0.72183 -0.70874,1.18181 -0.35428,0.39382 -0.87066,0.60036 -0.51637,0.20656 -1.03052,0.19868 -0.41642,-0.0172 -1.49703,-0.26217 -1.07282,-0.24284 -2.27237,-0.56778 l -2.04716,-0.5665 z m 4.65828,-8.68915 1.10607,0.29962 q 0.54526,0.14771 0.77541,0.17422 0.23936,0.017 0.47026,-0.0279 0.23089,-0.0449 0.41654,-0.24554 0.19343,-0.19847 0.29271,-0.48217 0.10706,-0.2816 0.14402,-0.58217 0.0526,-0.42776 -0.0464,-0.80101 -0.0912,-0.37113 -0.37506,-0.61528 -0.28388,-0.24414 -0.90702,-0.41295 l -1.40207,-0.37981 z m -0.97387,6.41401 1.49555,0.40513 q 0.59198,0.16036 0.88519,0.13228 0.35836,-0.0344 0.56311,-0.19389 0.20474,-0.15957 0.35008,-0.49053 0.15311,-0.32885 0.20714,-0.76816 0.047,-0.38151 -0.003,-0.69374 -0.0502,-0.31223 -0.19734,-0.55519 -0.1472,-0.24295 -0.3865,-0.3914 -0.23789,-0.16001 -0.76756,-0.3035 l -1.64354,-0.44522 z m 10.95417,11.15763 q -0.12036,-2.82658 -0.17704,-3.51522 0.48211,0.40052 0.85562,0.56665 0.3814,0.1669 0.65793,0.19397 0.29233,0.0286 0.55037,-0.0638 0.26594,-0.0917 0.42387,-0.25294 0.15742,-0.14947 0.34686,-0.48424 0.19736,-0.33399 0.29573,-0.58347 0.0979,-0.23773 0.20562,-0.69828 l -1.18878,-6.81775 -1.02602,-5.6594 q 1.17618,0.13871 1.65023,0.18513 0.55305,0.0541 1.51008,0.1243 0.10999,0.91763 0.41442,3.17337 0.31233,2.25651 0.43828,3.52903 0.072,0.70191 0.11934,1.7783 l 0.20761,-0.92186 q 0.0957,-0.36752 0.21977,-0.83824 0.12408,-0.47073 0.3118,-1.12366 l 0.60842,-2.08392 0.9987,-3.18812 q 0.98656,0.12012 1.4922,0.16967 0.44245,0.0434 1.58121,0.13126 l -1.7521,4.9634 -3.17904,9.21666 q -0.30406,0.7711 -0.56984,1.21617 -0.24788,0.39972 -0.53059,0.69002 -0.26585,0.26842 -0.56704,0.43915 -0.40703,0.23102 -0.88785,0.33704 -0.52875,0.11306 -1.06601,0.0606 -0.24492,-0.024 -0.64525,-0.12207 -0.40086,-0.0864 -0.65108,-0.16974 -0.24284,-0.0709 -0.64742,-0.25183 z m 15.48322,-2.90989 q 1.03353,0.46103 1.81391,0.61835 0.78068,0.16907 1.3583,0.13755 0.41937,-0.0229 0.75612,-0.18239 0.33704,-0.14775 0.53782,-0.35862 0.20079,-0.21087 0.33565,-0.524 0.14277,-0.31354 0.21259,-0.69367 0.0699,-0.38012 0.0892,-0.87509 0.0195,-0.49498 0.0217,-1.36533 -0.29842,0.42789 -0.52177,0.68704 -0.21545,0.25871 -0.54196,0.51173 -0.32679,0.24126 -0.71922,0.39204 -0.38482,0.1386 -0.82001,0.16236 -1.0049,0.0548 -1.82916,-0.59401 -0.82425,-0.64884 -1.25072,-1.87211 -0.42647,-1.22327 -0.46226,-2.66777 -0.0422,-1.70286 0.35105,-3.10023 0.39324,-1.39735 1.16094,-2.3918 0.7756,-0.99488 1.7161,-1.41075 0.94049,-0.41589 2.14321,-0.48153 0.6884,-0.0375 1.56198,0.0441 0.88121,0.0696 2.41853,0.39721 l -0.0939,3.88586 -0.0608,4.26037 q -0.004,0.45888 0.002,0.75248 l 0.0313,3.82024 q 0.002,0.72898 -0.0844,1.39226 -0.0722,0.60369 -0.26512,1.13164 -0.19293,0.52797 -0.48401,0.93193 -0.32185,0.44092 -0.7272,0.71 -0.41297,0.28125 -0.9786,0.47676 -0.61311,0.19809 -1.28569,0.2348 -0.3798,0.0207 -0.93514,-0.007 -0.55505,-0.0167 -1.1432,-0.0905 -0.58023,-0.0742 -1.01043,-0.16829 -0.42228,-0.0945 -1.07664,-0.28228 l -0.0938,-1.54718 q -0.019,-0.44584 -0.12714,-1.93343 z m 5.18429,-10.45518 q -0.49407,-0.11415 -0.88179,-0.0929 -0.71214,0.0389 -1.22419,0.4784 -0.50442,0.42736 -0.7692,1.25324 -0.26507,0.81413 -0.24354,1.68318 0.0157,0.63418 0.17943,1.1662 0.16373,0.53201 0.51974,0.8301 0.35572,0.28633 0.74344,0.26518 0.56971,-0.0311 0.99769,-0.66596 0.42797,-0.63487 0.56795,-1.7009 0.13998,-1.06602 0.11047,-3.21645 z m 9.9286,9.06974 q 1.0617,0.28727 1.84903,0.31458 0.78851,0.039 1.36016,-0.088 0.41504,-0.0921 0.73773,-0.30626 0.32385,-0.20256 0.50756,-0.44533 0.1837,-0.24276 0.29421,-0.57622 0.11836,-0.33521 0.1592,-0.72451 0.0409,-0.3893 0.023,-0.8844 -0.0178,-0.49511 -0.081,-1.3604 -0.26444,0.47455 -0.46695,0.76902 -0.19469,0.29273 -0.50017,0.59815 -0.30666,0.29381 -0.68532,0.50854 -0.37202,0.20135 -0.80272,0.29692 -0.99453,0.22066 -1.86236,-0.28786 -0.86782,-0.50851 -1.38346,-1.65364 -0.51563,-1.14514 -0.65962,-2.57474 -0.16975,-1.68529 0.11616,-3.13897 0.2859,-1.45368 0.97417,-2.56887 0.69611,-1.11693 1.59953,-1.68574 0.90343,-0.5688 2.09373,-0.8329 0.68129,-0.15116 1.55557,-0.21443 0.88094,-0.0766 2.43329,-0.005 l 0.19837,3.8772 0.25933,4.24391 q 0.03,0.45676 0.0593,0.74733 l 0.31782,3.79128 q 0.0569,0.72409 0.0207,1.39755 -0.0264,0.61187 -0.17853,1.16844 -0.15209,0.55657 -0.41103,1.00615 -0.28676,0.4914 -0.66938,0.82583 -0.38929,0.34778 -0.93673,0.6356 -0.59443,0.29823 -1.26006,0.44592 -0.37588,0.0835 -0.9299,0.14692 -0.55285,0.0752 -1.14288,0.099 -0.5822,0.0223 -1.01677,-1.7e-4 -0.42675,-0.0241 -1.09113,-0.10245 l -0.20934,-1.52204 q -0.0523,-0.43993 -0.27147,-1.90038 z m 4.36724,-11.2473 q -0.49957,-0.0318 -0.88328,0.0534 -0.70479,0.15637 -1.18066,0.67784 -0.46921,0.50811 -0.67035,1.37263 -0.20231,0.8529 -0.11568,1.71298 0.0632,0.62762 0.26586,1.12926 0.20263,0.50162 0.5788,0.73899 0.375,0.22574 0.75872,0.1406 0.56383,-0.12509 0.94148,-0.82677 0.37767,-0.70169 0.43676,-1.78422 0.0591,-1.08252 -0.13165,-3.2147 z"
         style="stroke:#050505;stroke-opacity:1;fill:#d2d2d2;fill-opacity:1" />
    </g>
  </g>
</svg>
